<svg width="24" height="24" viewBox="0 0 24 24" fill="none" xmlns="http://www.w3.org/2000/svg">
<path fill-rule="evenodd" clip-rule="evenodd" d="M15.4495 4.19735C15.8289 4.72439 16 5.25871 16 6V8C19.0815 8 21 9.93729 21 12.5C21 15.0875 19.0446 17 16 17V19C16 19.5027 16.1168 19.9978 16.3397 20.4444L16.4477 20.6584C16.811 21.3862 17 22.1871 17 23C17 23.5523 16.5523 24 16 24H4C3.44772 24 3 23.5523 3 23C3 22.1871 3.18897 21.3862 3.55428 20.6544L3.65827 20.4484C3.88318 19.9978 4 19.5027 4 19V8C4 7.81786 4.0487 7.64709 4.13378 7.5C4.0487 7.35291 4 7.18214 4 7V6C4 4.34372 5.34372 3 7 3C7.51933 3 8.01848 3.13297 8.45697 3.37692C8.49545 3.35752 8.53536 3.33821 8.57718 3.31876C8.7561 3.23555 8.94124 3.167 9.13277 3.11506C9.51056 1.89043 10.6517 1 12 1C13.5239 1 14.7832 2.13751 14.9748 3.60939C15.1423 3.81099 15.368 4.08418 15.4495 4.19735ZM16 15C17.9498 15 19 13.9729 19 12.5C19 11.0375 17.9725 10 16 10V15ZM14 6V7H6V6C6 5.44828 6.44828 5 7 5C7.27011 5 7.5201 5.10579 7.70592 5.29213C8.05662 5.64381 8.6123 5.6848 9.01081 5.38838C9.36735 5.12318 9.63223 5 10 5C10.5523 5 11 4.55228 11 4C11 3.44828 11.4483 3 12 3C12.5517 3 13 3.44828 13 4C13 4.22593 13.0765 4.44521 13.2171 4.6221C13.2561 4.67119 13.3457 4.7791 13.4451 4.89868L13.4452 4.89884C13.6014 5.08676 13.7814 5.30342 13.8263 5.3658C13.9599 5.55133 14 5.67666 14 6ZM5.90361 20H8C8.55228 20 9 19.5523 9 19C9 18.4477 8.55228 18 8 18H6V9H14V19C14 19.8129 14.189 20.6138 14.5523 21.3416L14.6603 21.5556C14.7319 21.6992 14.7926 21.8478 14.842 22H5.15822C5.20796 21.8467 5.26923 21.6969 5.34173 21.5516L5.44572 21.3456C5.6597 20.9169 5.81317 20.4646 5.90361 20ZM13 16C13 16.5523 12.5523 17 12 17C11.4477 17 11 16.5523 11 16V12C11 11.4477 11.4477 11 12 11C12.5523 11 13 11.4477 13 12V16Z" fill="black"/>
</svg>
